<!--?xml version="1.0" standalone="no"?-->
              <svg id="sw-js-blob-svg" viewBox="0 0 100 100" xmlns="http://www.w3.org/2000/svg" version="1.1">
                    <defs> 
                        <linearGradient id="sw-gradient" x1="0" x2="1" y1="1" y2="0">
                            <stop id="stop1" stop-color="rgba(64, 83, 76, 1)" offset="0%"></stop>
                            <stop id="stop2" stop-color="rgba(103, 125, 106, 1)" offset="100%"></stop>
                        </linearGradient>
                    </defs>
                <path fill="url(#sw-gradient)" d="M24.3,-29C29.9,-24.2,31.7,-15.1,33.9,-5.5C36.1,4,38.7,13.9,35.1,20.4C31.5,26.9,21.8,30.1,12.9,31.7C4,33.2,-4,33.3,-11.9,31.1C-19.8,29,-27.6,24.7,-32.6,17.9C-37.6,11.1,-39.9,1.8,-38,-6.3C-36.1,-14.4,-30,-21.4,-22.9,-25.9C-15.9,-30.4,-7.9,-32.4,0.7,-33.2C9.3,-34.1,18.7,-33.7,24.3,-29Z" width="100%" height="100%" transform="translate(50 50)" stroke-width="0" style="transition: 0.3s;" stroke="url(#sw-gradient)"></path>
              </svg>